<svg width="162" height="57" viewBox="0 0 162 57" fill="none" xmlns="http://www.w3.org/2000/svg">
<path d="M6.28 41.36C5.10667 41.36 4.18667 41.04 3.52 40.4C2.88 39.7333 2.56 38.7867 2.56 37.56V16.6C2.56 15.3733 2.88 14.44 3.52 13.8C4.18667 13.1333 5.14667 12.8 6.4 12.8H19.72C20.68 12.8 21.4 13.04 21.88 13.52C22.36 14 22.6 14.6933 22.6 15.6C22.6 16.5333 22.36 17.2533 21.88 17.76C21.4 18.24 20.68 18.48 19.72 18.48H9.92V24.16H18.84C19.7733 24.16 20.48 24.4 20.96 24.88C21.4667 25.36 21.72 26.0533 21.72 26.96C21.72 27.8933 21.4667 28.6 20.96 29.08C20.48 29.56 19.7733 29.8 18.84 29.8H9.92V37.56C9.92 40.0933 8.70667 41.36 6.28 41.36ZM34.0259 41.44C31.8392 41.44 29.9325 41.0267 28.3059 40.2C26.6792 39.3733 25.4125 38.1867 24.5059 36.64C23.5992 35.0933 23.1459 33.2667 23.1459 31.16C23.1459 29.56 23.3992 28.1333 23.9059 26.88C24.4125 25.6 25.1459 24.52 26.1059 23.64C27.0659 22.7333 28.2125 22.0533 29.5459 21.6C30.8792 21.12 32.3725 20.88 34.0259 20.88C36.2125 20.88 38.1192 21.2933 39.7459 22.12C41.3725 22.9467 42.6259 24.1333 43.5059 25.68C44.4125 27.2 44.8659 29.0267 44.8659 31.16C44.8659 32.7333 44.6125 34.16 44.1059 35.44C43.5992 36.72 42.8659 37.8133 41.9059 38.72C40.9725 39.6 39.8259 40.28 38.4659 40.76C37.1325 41.2133 35.6525 41.44 34.0259 41.44ZM34.0259 36.2C34.7459 36.2 35.3859 36.0267 35.9459 35.68C36.5059 35.3067 36.9325 34.76 37.2259 34.04C37.5459 33.2933 37.7059 32.3333 37.7059 31.16C37.7059 29.3733 37.3592 28.0933 36.6659 27.32C35.9725 26.52 35.0925 26.12 34.0259 26.12C33.3059 26.12 32.6659 26.2933 32.1059 26.64C31.5459 26.9867 31.1059 27.5333 30.7859 28.28C30.4659 29 30.3059 29.96 30.3059 31.16C30.3059 32.92 30.6525 34.2 31.3459 35C32.0392 35.8 32.9325 36.2 34.0259 36.2ZM57.5352 41.44C55.3485 41.44 53.4418 41.0267 51.8152 40.2C50.1885 39.3733 48.9218 38.1867 48.0152 36.64C47.1085 35.0933 46.6552 33.2667 46.6552 31.16C46.6552 29.56 46.9085 28.1333 47.4152 26.88C47.9218 25.6 48.6552 24.52 49.6152 23.64C50.5752 22.7333 51.7218 22.0533 53.0552 21.6C54.3885 21.12 55.8818 20.88 57.5352 20.88C59.7218 20.88 61.6285 21.2933 63.2552 22.12C64.8818 22.9467 66.1352 24.1333 67.0152 25.68C67.9218 27.2 68.3752 29.0267 68.3752 31.16C68.3752 32.7333 68.1218 34.16 67.6152 35.44C67.1085 36.72 66.3752 37.8133 65.4152 38.72C64.4818 39.6 63.3352 40.28 61.9752 40.76C60.6418 41.2133 59.1618 41.44 57.5352 41.44ZM57.5352 36.2C58.2552 36.2 58.8952 36.0267 59.4552 35.68C60.0152 35.3067 60.4418 34.76 60.7352 34.04C61.0552 33.2933 61.2152 32.3333 61.2152 31.16C61.2152 29.3733 60.8685 28.0933 60.1752 27.32C59.4818 26.52 58.6018 26.12 57.5352 26.12C56.8152 26.12 56.1752 26.2933 55.6152 26.64C55.0552 26.9867 54.6152 27.5333 54.2952 28.28C53.9752 29 53.8152 29.96 53.8152 31.16C53.8152 32.92 54.1618 34.2 54.8552 35C55.5485 35.8 56.4418 36.2 57.5352 36.2ZM78.7645 41.44C77.0845 41.44 75.5912 41.0267 74.2845 40.2C73.0045 39.3733 71.9912 38.1867 71.2445 36.64C70.5245 35.0933 70.1645 33.2667 70.1645 31.16C70.1645 29 70.5245 27.16 71.2445 25.64C71.9912 24.12 73.0045 22.9467 74.2845 22.12C75.5912 21.2933 77.0845 20.88 78.7645 20.88C80.2312 20.88 81.5512 21.2267 82.7245 21.92C83.8978 22.6133 84.6845 23.5067 85.0845 24.6H84.6445V16.04C84.6445 14.8667 84.9512 13.9733 85.5645 13.36C86.1778 12.7467 87.0578 12.44 88.2045 12.44C89.3245 12.44 90.1912 12.7467 90.8045 13.36C91.4445 13.9733 91.7645 14.8667 91.7645 16.04V37.76C91.7645 38.9333 91.4578 39.8267 90.8445 40.44C90.2578 41.0533 89.3912 41.36 88.2445 41.36C87.1245 41.36 86.2578 41.0533 85.6445 40.44C85.0312 39.8267 84.7245 38.9333 84.7245 37.76V35.48L85.1645 37.44C84.7912 38.64 84.0045 39.6133 82.8045 40.36C81.6312 41.08 80.2845 41.44 78.7645 41.44ZM81.0445 36.2C81.7645 36.2 82.4045 36.0267 82.9645 35.68C83.5245 35.3067 83.9512 34.76 84.2445 34.04C84.5645 33.2933 84.7245 32.3333 84.7245 31.16C84.7245 29.3733 84.3778 28.0933 83.6845 27.32C82.9912 26.52 82.1112 26.12 81.0445 26.12C80.3245 26.12 79.6845 26.2933 79.1245 26.64C78.5645 26.9867 78.1245 27.5333 77.8045 28.28C77.4845 29 77.3245 29.96 77.3245 31.16C77.3245 32.92 77.6712 34.2 78.3645 35C79.0578 35.8 79.9512 36.2 81.0445 36.2ZM98.856 41.36C97.736 41.36 96.8693 41.0267 96.256 40.36C95.6426 39.6933 95.336 38.7333 95.336 37.48V24.84C95.336 23.5867 95.6426 22.6267 96.256 21.96C96.8693 21.2933 97.736 20.96 98.856 20.96C100.003 20.96 100.883 21.2933 101.496 21.96C102.136 22.6267 102.456 23.5867 102.456 24.84V37.48C102.456 38.7333 102.149 39.6933 101.536 40.36C100.923 41.0267 100.029 41.36 98.856 41.36ZM98.856 18.12C97.6026 18.12 96.6293 17.8267 95.936 17.24C95.2693 16.6533 94.936 15.8 94.936 14.68C94.936 13.5867 95.2693 12.7467 95.936 12.16C96.6293 11.5733 97.6026 11.28 98.856 11.28C100.163 11.28 101.149 11.5733 101.816 12.16C102.483 12.7467 102.816 13.5867 102.816 14.68C102.816 15.8 102.483 16.6533 101.816 17.24C101.149 17.8267 100.163 18.12 98.856 18.12ZM116.753 41.44C114.353 41.44 112.273 41.0267 110.513 40.2C108.779 39.3467 107.446 38.1467 106.513 36.6C105.579 35.0533 105.113 33.2267 105.113 31.12C105.113 29.0933 105.553 27.32 106.433 25.8C107.339 24.2533 108.566 23.0533 110.113 22.2C111.686 21.32 113.473 20.88 115.473 20.88C116.939 20.88 118.273 21.12 119.473 21.6C120.673 22.0533 121.699 22.7333 122.553 23.64C123.406 24.52 124.046 25.5867 124.473 26.84C124.926 28.0933 125.153 29.4933 125.153 31.04C125.153 31.5733 125.006 31.9733 124.713 32.24C124.419 32.48 123.953 32.6 123.313 32.6H111.073V29.24H119.953L119.313 29.76C119.313 28.7733 119.179 27.9733 118.913 27.36C118.646 26.7467 118.246 26.28 117.713 25.96C117.206 25.64 116.566 25.48 115.793 25.48C114.966 25.48 114.246 25.68 113.633 26.08C113.046 26.4533 112.593 27.0133 112.273 27.76C111.953 28.5067 111.793 29.44 111.793 30.56V30.92C111.793 32.8133 112.206 34.1733 113.033 35C113.886 35.8 115.193 36.2 116.953 36.2C117.539 36.2 118.206 36.1333 118.953 36C119.726 35.84 120.459 35.6267 121.153 35.36C121.846 35.0933 122.446 35.0533 122.953 35.24C123.459 35.4 123.846 35.6933 124.113 36.12C124.406 36.52 124.566 36.9867 124.593 37.52C124.619 38.0267 124.499 38.5333 124.233 39.04C123.966 39.52 123.526 39.8933 122.913 40.16C121.979 40.5867 120.979 40.9067 119.913 41.12C118.873 41.3333 117.819 41.44 116.753 41.44ZM135.507 41.44C134.334 41.44 133.134 41.3467 131.907 41.16C130.707 41 129.614 40.6933 128.627 40.24C127.96 39.9733 127.48 39.6133 127.187 39.16C126.92 38.7067 126.787 38.2267 126.787 37.72C126.814 37.2133 126.96 36.76 127.227 36.36C127.52 35.9333 127.894 35.64 128.347 35.48C128.827 35.2933 129.36 35.3067 129.947 35.52C131.067 35.92 132.067 36.2133 132.947 36.4C133.854 36.56 134.72 36.64 135.547 36.64C136.534 36.64 137.24 36.5067 137.667 36.24C138.094 35.9467 138.307 35.5733 138.307 35.12C138.307 34.72 138.16 34.4133 137.867 34.2C137.6 33.9867 137.214 33.84 136.707 33.76L132.267 33.04C130.614 32.7467 129.334 32.1467 128.427 31.24C127.52 30.3067 127.067 29.0933 127.067 27.6C127.067 26.2133 127.454 25.0267 128.227 24.04C129.027 23.0267 130.107 22.2533 131.467 21.72C132.854 21.16 134.44 20.88 136.227 20.88C137.427 20.88 138.52 20.9733 139.507 21.16C140.494 21.32 141.454 21.6267 142.387 22.08C142.974 22.32 143.387 22.6667 143.627 23.12C143.867 23.5733 143.96 24.0533 143.907 24.56C143.854 25.04 143.68 25.4933 143.387 25.92C143.12 26.32 142.747 26.6 142.267 26.76C141.787 26.8933 141.227 26.8533 140.587 26.64C139.707 26.2933 138.92 26.04 138.227 25.88C137.56 25.72 136.934 25.64 136.347 25.64C135.254 25.64 134.48 25.7867 134.027 26.08C133.574 26.3733 133.347 26.7467 133.347 27.2C133.347 27.5467 133.467 27.84 133.707 28.08C133.947 28.2933 134.32 28.44 134.827 28.52L139.267 29.28C140.974 29.5467 142.28 30.1333 143.187 31.04C144.12 31.92 144.587 33.12 144.587 34.64C144.587 36.8 143.76 38.48 142.107 39.68C140.454 40.8533 138.254 41.44 135.507 41.44ZM157.082 41.44C155.082 41.44 153.429 41.1333 152.122 40.52C150.842 39.9067 149.882 38.9867 149.242 37.76C148.602 36.5067 148.282 34.9467 148.282 33.08V26.56H146.922C146.069 26.56 145.402 26.3333 144.922 25.88C144.469 25.4267 144.242 24.7733 144.242 23.92C144.242 23.0667 144.469 22.4267 144.922 22C145.402 21.5467 146.069 21.32 146.922 21.32H148.282V18.84C148.282 17.6667 148.589 16.7733 149.202 16.16C149.816 15.5467 150.696 15.24 151.842 15.24C152.989 15.24 153.869 15.5467 154.482 16.16C155.096 16.7733 155.402 17.6667 155.402 18.84V21.32H158.682C159.562 21.32 160.229 21.5467 160.682 22C161.162 22.4267 161.402 23.0667 161.402 23.92C161.402 24.7733 161.162 25.4267 160.682 25.88C160.229 26.3333 159.562 26.56 158.682 26.56H155.402V32.84C155.402 33.8267 155.629 34.56 156.082 35.04C156.562 35.4933 157.309 35.72 158.322 35.72C158.696 35.72 159.056 35.68 159.402 35.6C159.749 35.52 160.069 35.48 160.362 35.48C160.789 35.4533 161.136 35.5867 161.402 35.88C161.669 36.1467 161.802 36.7733 161.802 37.76C161.802 38.56 161.682 39.24 161.442 39.8C161.202 40.3333 160.776 40.72 160.162 40.96C159.789 41.0933 159.282 41.2 158.642 41.28C158.002 41.3867 157.482 41.44 157.082 41.44Z" fill="white"/>
<path d="M32 44C32 55 60 54.5 60 44" stroke="white" stroke-width="8"/>
</svg>
